<mxfile host="65bd71144e">
    <diagram id="uOoTb-6G8cg4r1ey1Et2" name="Page-1">
        <mxGraphModel dx="588" dy="1545" grid="1" gridSize="10" guides="1" tooltips="1" connect="1" arrows="1" fold="1" page="1" pageScale="1" pageWidth="850" pageHeight="1100" math="0" shadow="0">
            <root>
                <mxCell id="0"/>
                <mxCell id="1" parent="0"/>
                <mxCell id="2" value="" style="ellipse;html=1;shape=endState;fillColor=#000000;strokeColor=#000000;" vertex="1" parent="1">
                    <mxGeometry x="501.25" y="280" width="30" height="30" as="geometry"/>
                </mxCell>
                <mxCell id="6" style="edgeStyle=none;html=1;exitX=0.5;exitY=1;exitDx=0;exitDy=0;entryX=0.5;entryY=0;entryDx=0;entryDy=0;endArrow=open;endFill=0;" edge="1" parent="1" source="3" target="4">
                    <mxGeometry relative="1" as="geometry"/>
                </mxCell>
                <mxCell id="3" value="" style="ellipse;fillColor=#000000;strokeColor=none;" vertex="1" parent="1">
                    <mxGeometry x="300" y="-540" width="30" height="30" as="geometry"/>
                </mxCell>
                <mxCell id="7" style="edgeStyle=none;html=1;exitX=0.5;exitY=1;exitDx=0;exitDy=0;entryX=0.5;entryY=0;entryDx=0;entryDy=0;endArrow=open;endFill=0;" edge="1" parent="1" source="4" target="5">
                    <mxGeometry relative="1" as="geometry"/>
                </mxCell>
                <mxCell id="4" value="Aufrufen der Suchfunktion&lt;br&gt;für Fahrzeuge" style="html=1;align=center;verticalAlign=top;rounded=1;absoluteArcSize=1;arcSize=10;dashed=0;gradientColor=none;shadow=0;glass=0;sketch=0;labelBackgroundColor=none;perimeterSpacing=0;" vertex="1" parent="1">
                    <mxGeometry x="237.5" y="-450" width="155" height="40" as="geometry"/>
                </mxCell>
                <mxCell id="11" style="edgeStyle=none;html=1;exitX=0.5;exitY=1;exitDx=0;exitDy=0;entryX=0.5;entryY=0;entryDx=0;entryDy=0;endArrow=open;endFill=0;" edge="1" parent="1" source="5" target="9">
                    <mxGeometry relative="1" as="geometry"/>
                </mxCell>
                <mxCell id="5" value="Eingabe von Standort, Zeitraum,&lt;br&gt;Modell, Preis als Kriterien für die&amp;nbsp;&lt;br&gt;Suche" style="html=1;align=center;verticalAlign=top;rounded=1;absoluteArcSize=1;arcSize=10;dashed=0;gradientColor=none;shadow=0;glass=0;sketch=0;labelBackgroundColor=none;perimeterSpacing=0;" vertex="1" parent="1">
                    <mxGeometry x="223.75" y="-310" width="182.5" height="50" as="geometry"/>
                </mxCell>
                <mxCell id="12" style="edgeStyle=none;html=1;exitX=0;exitY=0.5;exitDx=0;exitDy=0;endArrow=open;endFill=0;entryX=0;entryY=0.5;entryDx=0;entryDy=0;" edge="1" parent="1" source="9" target="5">
                    <mxGeometry relative="1" as="geometry">
                        <mxPoint x="200" y="-300" as="targetPoint"/>
                        <Array as="points">
                            <mxPoint x="160" y="-175"/>
                            <mxPoint x="160" y="-285"/>
                        </Array>
                    </mxGeometry>
                </mxCell>
                <mxCell id="19" value="&lt;span style=&quot;font-size: 12px&quot;&gt;[Eingabe ungültig]&lt;/span&gt;" style="edgeLabel;html=1;align=center;verticalAlign=middle;resizable=0;points=[];" vertex="1" connectable="0" parent="12">
                    <mxGeometry x="-0.6457" relative="1" as="geometry">
                        <mxPoint x="-6" as="offset"/>
                    </mxGeometry>
                </mxCell>
                <mxCell id="15" style="edgeStyle=none;html=1;exitX=1;exitY=0.5;exitDx=0;exitDy=0;entryX=0;entryY=0.5;entryDx=0;entryDy=0;endArrow=open;endFill=0;" edge="1" parent="1" source="9" target="14">
                    <mxGeometry relative="1" as="geometry"/>
                </mxCell>
                <mxCell id="18" value="[Eingabe gültig]" style="edgeLabel;html=1;align=center;verticalAlign=middle;resizable=0;points=[];" vertex="1" connectable="0" parent="15">
                    <mxGeometry x="-0.4743" relative="1" as="geometry">
                        <mxPoint x="31" as="offset"/>
                    </mxGeometry>
                </mxCell>
                <mxCell id="9" value="" style="rhombus;" vertex="1" parent="1">
                    <mxGeometry x="300" y="-190" width="30" height="30" as="geometry"/>
                </mxCell>
                <mxCell id="21" style="edgeStyle=none;html=1;exitX=0.25;exitY=1;exitDx=0;exitDy=0;entryX=0.5;entryY=0;entryDx=0;entryDy=0;endArrow=open;endFill=0;" edge="1" parent="1" source="14" target="20">
                    <mxGeometry relative="1" as="geometry"/>
                </mxCell>
                <mxCell id="14" value="Fahrzeug aus Liste reservier-&lt;br&gt;barer Fahrzeuge wählen und&amp;nbsp;&lt;br&gt;Reserviervorgang starten" style="html=1;align=center;verticalAlign=top;rounded=1;absoluteArcSize=1;arcSize=10;dashed=0;gradientColor=none;shadow=0;glass=0;sketch=0;labelBackgroundColor=none;perimeterSpacing=0;" vertex="1" parent="1">
                    <mxGeometry x="480" y="-200" width="182.5" height="50" as="geometry"/>
                </mxCell>
                <mxCell id="22" style="edgeStyle=none;html=1;exitX=1;exitY=0.5;exitDx=0;exitDy=0;endArrow=open;endFill=0;entryX=1;entryY=0.5;entryDx=0;entryDy=0;" edge="1" parent="1" source="20" target="14">
                    <mxGeometry relative="1" as="geometry">
                        <mxPoint x="720" y="-200" as="targetPoint"/>
                        <Array as="points">
                            <mxPoint x="840" y="-25"/>
                            <mxPoint x="840" y="-175"/>
                        </Array>
                    </mxGeometry>
                </mxCell>
                <mxCell id="23" value="[bereits bestehender/abgeschlossener Reserviervorgang]" style="edgeLabel;html=1;align=center;verticalAlign=middle;resizable=0;points=[];" vertex="1" connectable="0" parent="22">
                    <mxGeometry x="-0.7305" y="1" relative="1" as="geometry">
                        <mxPoint x="65" y="1" as="offset"/>
                    </mxGeometry>
                </mxCell>
                <mxCell id="26" style="edgeStyle=none;html=1;exitX=0;exitY=0.5;exitDx=0;exitDy=0;entryX=1;entryY=0.5;entryDx=0;entryDy=0;endArrow=open;endFill=0;" edge="1" parent="1" source="20" target="25">
                    <mxGeometry relative="1" as="geometry"/>
                </mxCell>
                <mxCell id="27" value="[Reserviervorgang erstellt]" style="edgeLabel;html=1;align=center;verticalAlign=middle;resizable=0;points=[];" vertex="1" connectable="0" parent="26">
                    <mxGeometry x="0.2609" y="-2" relative="1" as="geometry">
                        <mxPoint x="26" y="2" as="offset"/>
                    </mxGeometry>
                </mxCell>
                <mxCell id="20" value="" style="rhombus;" vertex="1" parent="1">
                    <mxGeometry x="510" y="-40" width="30" height="30" as="geometry"/>
                </mxCell>
                <mxCell id="24" value="(Eines anderen Kundens)" style="text;html=1;align=center;verticalAlign=middle;resizable=0;points=[];autosize=1;strokeColor=none;fillColor=none;" vertex="1" parent="1">
                    <mxGeometry x="610" y="-20" width="150" height="20" as="geometry"/>
                </mxCell>
                <mxCell id="30" style="edgeStyle=none;html=1;exitX=0.5;exitY=1;exitDx=0;exitDy=0;entryX=0.5;entryY=0;entryDx=0;entryDy=0;endArrow=open;endFill=0;" edge="1" parent="1" source="25" target="28">
                    <mxGeometry relative="1" as="geometry"/>
                </mxCell>
                <mxCell id="25" value="Eingabe des Zeitraums&lt;br&gt;für die Reservierung" style="html=1;align=center;verticalAlign=top;rounded=1;absoluteArcSize=1;arcSize=10;dashed=0;gradientColor=none;shadow=0;glass=0;sketch=0;labelBackgroundColor=none;perimeterSpacing=0;" vertex="1" parent="1">
                    <mxGeometry x="160" y="-50" width="182.5" height="50" as="geometry"/>
                </mxCell>
                <mxCell id="31" style="edgeStyle=none;html=1;exitX=0;exitY=0.5;exitDx=0;exitDy=0;endArrow=open;endFill=0;entryX=0;entryY=0.5;entryDx=0;entryDy=0;" edge="1" parent="1" source="28" target="25">
                    <mxGeometry relative="1" as="geometry">
                        <mxPoint x="150" y="-20" as="targetPoint"/>
                        <Array as="points">
                            <mxPoint x="120" y="145"/>
                            <mxPoint x="120" y="-25"/>
                        </Array>
                    </mxGeometry>
                </mxCell>
                <mxCell id="32" value="[ungültige Eingabe]" style="edgeLabel;html=1;align=center;verticalAlign=middle;resizable=0;points=[];" vertex="1" connectable="0" parent="31">
                    <mxGeometry x="-0.4357" y="1" relative="1" as="geometry">
                        <mxPoint x="38" y="-1" as="offset"/>
                    </mxGeometry>
                </mxCell>
                <mxCell id="34" style="edgeStyle=none;html=1;exitX=1;exitY=0.5;exitDx=0;exitDy=0;entryX=0;entryY=0.5;entryDx=0;entryDy=0;endArrow=open;endFill=0;" edge="1" parent="1" source="28" target="33">
                    <mxGeometry relative="1" as="geometry"/>
                </mxCell>
                <mxCell id="35" value="[gültige Eingabe]" style="edgeLabel;html=1;align=center;verticalAlign=middle;resizable=0;points=[];" vertex="1" connectable="0" parent="34">
                    <mxGeometry x="-0.5726" y="-2" relative="1" as="geometry">
                        <mxPoint x="40" y="-2" as="offset"/>
                    </mxGeometry>
                </mxCell>
                <mxCell id="28" value="" style="rhombus;" vertex="1" parent="1">
                    <mxGeometry x="236.25" y="130" width="30" height="30" as="geometry"/>
                </mxCell>
                <mxCell id="36" style="edgeStyle=none;html=1;exitX=0.5;exitY=1;exitDx=0;exitDy=0;entryX=0.5;entryY=0;entryDx=0;entryDy=0;endArrow=open;endFill=0;" edge="1" parent="1" source="33" target="2">
                    <mxGeometry relative="1" as="geometry"/>
                </mxCell>
                <mxCell id="33" value="Manuelle Bestätigung der&amp;nbsp;&lt;br&gt;Eingabe" style="html=1;align=center;verticalAlign=top;rounded=1;absoluteArcSize=1;arcSize=10;dashed=0;gradientColor=none;shadow=0;glass=0;sketch=0;labelBackgroundColor=none;perimeterSpacing=0;" vertex="1" parent="1">
                    <mxGeometry x="425" y="120" width="182.5" height="50" as="geometry"/>
                </mxCell>
            </root>
        </mxGraphModel>
    </diagram>
</mxfile>